<svg xmlns="http://www.w3.org/2000/svg" xmlns:xlink="http://www.w3.org/1999/xlink" version="1.1" x="0px" y="0px" viewBox="0 0 100 125" enable-background="new 0 0 100 100" xml:space="preserve"><path d="M30.436,66.803c-0.595,0.803-3.565,4.91-3.565,6.941c0,2.298,1.87,4.168,4.168,4.168c2.299,0,4.169-1.87,4.169-4.168  c0-2.031-2.971-6.139-3.567-6.941C31.358,66.422,30.719,66.422,30.436,66.803z M31.038,76.412c-1.471,0-2.668-1.197-2.668-2.668  c0-1.016,1.455-3.451,2.668-5.205c1.213,1.754,2.669,4.189,2.669,5.205C33.707,75.215,32.51,76.412,31.038,76.412z M72.38,63.43  h-3.717v-9.389h3.717c0.414,0,0.75-0.336,0.75-0.75s-0.336-0.75-0.75-0.75h-3.717v-1.617c0-0.414-0.336-0.75-0.75-0.75h-11.25  c-0.414,0-0.75,0.336-0.75,0.75v1.617h-8.542c-2.588,0-4.694-2.105-4.694-4.693V39.27h1.619c0.414,0,0.75-0.336,0.75-0.75V27.27  c0-0.414-0.336-0.75-0.75-0.75h-1.618v-3.682c0-0.414-0.336-0.75-0.75-0.75s-0.75,0.336-0.75,0.75v3.682h-9.389v-3.682  c0-0.414-0.336-0.75-0.75-0.75s-0.75,0.336-0.75,0.75v3.682H28.67c-0.414,0-0.75,0.336-0.75,0.75v11.25  c0,0.414,0.336,0.75,0.75,0.75h1.633c-0.003,2.985-0.015,13.932-0.015,14.021c0,2.79,0.989,5.353,2.631,7.36  c0.001,0.001,0.001,0.002,0.001,0.003c0.001,0.002,0.003,0.002,0.004,0.004c2.136,2.605,5.377,4.271,9.001,4.271h13.986v1.619  c0,0.414,0.336,0.75,0.75,0.75h11.25c0.414,0,0.75-0.336,0.75-0.75V64.93h3.717c0.414,0,0.75-0.336,0.75-0.75  S72.794,63.43,72.38,63.43z M29.42,37.77v-9.75h1.444c0.057,0.014,0.112,0.035,0.174,0.035s0.117-0.021,0.174-0.035h10.541  c0.057,0.014,0.112,0.035,0.174,0.035s0.117-0.021,0.174-0.035h1.444v9.75H29.42z M55.913,63.43H41.927  c-2.819,0-5.371-1.159-7.211-3.022l3.49-2.207c0.178-0.112,0.3-0.295,0.337-0.502c0.037-0.208-0.015-0.421-0.143-0.588l-1.079-1.407  l2.877-1.773c0.353-0.218,0.462-0.68,0.245-1.032c-0.218-0.353-0.68-0.461-1.032-0.245l-3.584,2.209  c-0.181,0.111-0.306,0.294-0.344,0.503c-0.038,0.208,0.014,0.424,0.143,0.592l1.084,1.415l-2.969,1.878  c-1.223-1.675-1.953-3.73-1.953-5.958c0-0.09,0.012-11.039,0.015-14.021h9.374v8.578c0,3.415,2.778,6.193,6.194,6.193h8.542V63.43z   M67.163,65.799h-9.75V51.674h9.75V65.799z"/></svg>