<svg width="463" height="335" viewBox="0 0 463 335" fill="none" xmlns="http://www.w3.org/2000/svg">
<g clip-path="url(#clip0_2_2359)" filter="url(#filter0_d_2_2359)">
<path d="M325.12 187.818L256.009 207.417L185.637 223.136L186.245 241.755C186.245 241.755 211.618 244.45 263.906 231.221C319.793 217.094 335.961 203.865 335.961 203.865L325.073 187.859L325.12 187.818Z" fill="#008A48"/>
<path d="M363.764 89.4178C367.876 101.871 310.587 127.39 235.776 146.335C160.965 165.28 96.9012 170.506 92.7892 158.012C90.8266 152.051 102.882 143.109 124.144 133.351C120.452 136.74 118.817 139.884 119.658 142.497C123.443 153.97 173.955 151.275 232.505 136.454C291.008 121.633 335.353 100.319 331.568 88.8462C330.68 86.2331 327.409 84.3549 322.223 83.2117C346.147 81.5376 361.848 83.4566 363.81 89.4178H363.764Z" fill="url(#paint0_linear_2_2359)"/>
<path d="M321.662 92.3168C324.419 100.646 283.766 118.203 230.87 131.595C177.974 144.988 132.835 149.112 130.078 140.782C128.816 137.026 136.433 131.432 150.031 125.144C149.937 125.512 149.984 125.838 150.031 126.124C152.133 132.453 186.432 129.309 226.664 119.101C266.897 108.894 297.784 95.5424 295.728 89.2138C295.635 88.8871 295.448 88.6013 295.167 88.3563C310.541 87.2947 320.354 88.4788 321.615 92.2352L321.662 92.3168Z" fill="#AACC1E"/>
<path d="M259.607 218.319C186.432 236.815 145.171 228.281 120.359 205.008C110.125 195.413 102.742 183.286 97.0881 169.567C120.873 172.14 170.17 165.648 225.356 151.643C229.094 150.704 232.926 149.724 236.571 148.703C305.821 130.166 357.268 106.526 353.297 94.6442C353.203 94.3992 353.11 94.1542 352.923 93.9092L363.81 89.4179C381.66 143.273 371.193 190.064 259.654 218.319H259.607Z" fill="url(#paint1_linear_2_2359)"/>
<path d="M238.673 68.1862C213.627 50.1802 244.748 37.972 233.907 17.7611C233.907 17.7611 286.429 35.2364 247.552 69.0437C247.552 69.0437 250.916 54.6306 244.935 41.8917C244.935 41.8917 248.486 58.7137 238.72 68.1454L238.673 68.1862Z" fill="#AACC1E"/>
<path d="M269.514 83.7425C271.57 67.0022 288.672 76.5156 296.616 65.2465C296.616 65.2465 303.812 93.7459 271.897 87.9072C271.897 87.9072 281.196 84.6816 286.476 77.9038C286.476 77.9038 278.065 84.9266 269.514 83.7833V83.7425Z" fill="#AACC1E"/>
<path d="M184.282 96.2365C179.609 68.0638 151.386 85.1308 137.181 66.4714C137.181 66.4714 127.087 115.018 180.544 103.341C180.544 103.341 164.61 98.4005 155.217 87.2539C155.217 87.2539 169.89 98.6863 184.282 96.2365Z" fill="#AACC1E"/>
<path d="M207.412 69.6153C222.646 34.2564 177.366 38.2578 174.516 8.61514C174.516 8.61514 127.134 59.367 197.88 75.8215C197.88 75.8215 182.974 61.1227 180.217 42.9533C180.217 42.9533 188.908 64.4707 207.412 69.6561V69.6153Z" fill="#70B353"/>
<path d="M227.786 84.5591C230.075 91.4594 225.543 98.6864 217.599 100.687C209.702 102.688 201.431 98.7272 199.142 91.7861C196.852 84.8858 201.385 77.6589 209.328 75.6582C217.225 73.6575 225.496 77.618 227.786 84.5591Z" fill="#E6C91E"/>
<path d="M258.112 87.5397C259.234 90.9286 256.991 94.4808 253.112 95.4607C249.234 96.4407 245.168 94.4808 244.047 91.0919C242.926 87.703 245.168 84.1508 249.047 83.1709C252.925 82.191 256.991 84.1508 258.112 87.5397Z" fill="#DC7C28"/>
<path d="M200.59 109.588C201.712 112.977 199.469 116.529 195.59 117.509C191.712 118.489 187.646 116.529 186.525 113.14C185.404 109.751 187.646 106.199 191.525 105.219C195.403 104.239 199.469 106.199 200.59 109.588Z" fill="#F2A666"/>
<path d="M222.038 7.30858C213.3 -10.575 175.404 5.83869 216.384 39.9318C216.711 40.2176 217.272 39.8502 217.038 39.5235C213.207 33.5623 203.067 16.2912 208.674 10.085C213.113 5.14458 219.141 6.85944 221.478 7.79854C221.805 7.92103 222.178 7.63522 222.038 7.30858Z" fill="#F2A666"/>
<path d="M268.486 66.5122C265.401 46.6279 288.906 42.1775 288.906 42.1775C288.906 42.1775 292.457 64.389 268.486 66.5122Z" fill="#70B353"/>
<path d="M150.451 115.222C131.293 126.287 116.527 109.71 116.527 109.71C116.527 109.71 137.881 97.2981 150.451 115.222Z" fill="#AACC1E"/>
<g style="mix-blend-mode:hard-light" opacity="0.1">
<path d="M259.607 218.319C186.432 236.815 145.171 228.281 120.359 205.008C148.442 222.157 150.311 204.436 248.439 192.432C346.615 180.428 359.605 130.003 363.764 89.4179C381.614 143.273 371.147 190.064 259.607 218.319Z" fill="#404C59"/>
</g>
</g>
<g filter="url(#filter1_d_2_2359)">
<path d="M33.233 288.091V323H26.858L11.6705 301.028H11.4148V323H4.03409V288.091H10.5114L25.5795 310.045H25.8864V288.091H33.233ZM51.0241 323.511C48.3764 323.511 46.0866 322.949 44.1548 321.824C42.2344 320.687 40.7514 319.108 39.706 317.085C38.6605 315.051 38.1378 312.693 38.1378 310.011C38.1378 307.307 38.6605 304.943 39.706 302.92C40.7514 300.886 42.2344 299.307 44.1548 298.182C46.0866 297.045 48.3764 296.477 51.0241 296.477C53.6719 296.477 55.956 297.045 57.8764 298.182C59.8082 299.307 61.2969 300.886 62.3423 302.92C63.3878 304.943 63.9105 307.307 63.9105 310.011C63.9105 312.693 63.3878 315.051 62.3423 317.085C61.2969 319.108 59.8082 320.687 57.8764 321.824C55.956 322.949 53.6719 323.511 51.0241 323.511ZM51.0582 317.886C52.2628 317.886 53.2685 317.545 54.0753 316.864C54.8821 316.17 55.4901 315.227 55.8991 314.034C56.3196 312.841 56.5298 311.483 56.5298 309.96C56.5298 308.438 56.3196 307.08 55.8991 305.886C55.4901 304.693 54.8821 303.75 54.0753 303.057C53.2685 302.364 52.2628 302.017 51.0582 302.017C49.8423 302.017 48.8196 302.364 47.9901 303.057C47.1719 303.75 46.5526 304.693 46.1321 305.886C45.723 307.08 45.5185 308.438 45.5185 309.96C45.5185 311.483 45.723 312.841 46.1321 314.034C46.5526 315.227 47.1719 316.17 47.9901 316.864C48.8196 317.545 49.8423 317.886 51.0582 317.886ZM80.4616 323.511C77.8139 323.511 75.5241 322.949 73.5923 321.824C71.6719 320.687 70.1889 319.108 69.1435 317.085C68.098 315.051 67.5753 312.693 67.5753 310.011C67.5753 307.307 68.098 304.943 69.1435 302.92C70.1889 300.886 71.6719 299.307 73.5923 298.182C75.5241 297.045 77.8139 296.477 80.4616 296.477C83.1094 296.477 85.3935 297.045 87.3139 298.182C89.2457 299.307 90.7344 300.886 91.7798 302.92C92.8253 304.943 93.348 307.307 93.348 310.011C93.348 312.693 92.8253 315.051 91.7798 317.085C90.7344 319.108 89.2457 320.687 87.3139 321.824C85.3935 322.949 83.1094 323.511 80.4616 323.511ZM80.4957 317.886C81.7003 317.886 82.706 317.545 83.5128 316.864C84.3196 316.17 84.9276 315.227 85.3366 314.034C85.7571 312.841 85.9673 311.483 85.9673 309.96C85.9673 308.438 85.7571 307.08 85.3366 305.886C84.9276 304.693 84.3196 303.75 83.5128 303.057C82.706 302.364 81.7003 302.017 80.4957 302.017C79.2798 302.017 78.2571 302.364 77.4276 303.057C76.6094 303.75 75.9901 304.693 75.5696 305.886C75.1605 307.08 74.956 308.438 74.956 309.96C74.956 311.483 75.1605 312.841 75.5696 314.034C75.9901 315.227 76.6094 316.17 77.4276 316.864C78.2571 317.545 79.2798 317.886 80.4957 317.886ZM98.0696 323V296.818H104.99V301.438H105.297C105.842 299.903 106.751 298.693 108.024 297.807C109.297 296.92 110.82 296.477 112.592 296.477C114.388 296.477 115.916 296.926 117.178 297.824C118.439 298.71 119.28 299.915 119.7 301.438H119.973C120.507 299.938 121.473 298.739 122.871 297.841C124.28 296.932 125.945 296.477 127.865 296.477C130.308 296.477 132.291 297.256 133.814 298.812C135.348 300.358 136.115 302.551 136.115 305.392V323H128.871V306.824C128.871 305.369 128.484 304.278 127.712 303.551C126.939 302.824 125.973 302.46 124.814 302.46C123.496 302.46 122.467 302.881 121.729 303.722C120.99 304.551 120.621 305.648 120.621 307.011V323H113.581V306.67C113.581 305.386 113.212 304.364 112.473 303.602C111.746 302.841 110.786 302.46 109.592 302.46C108.786 302.46 108.058 302.665 107.411 303.074C106.774 303.472 106.268 304.034 105.893 304.761C105.518 305.477 105.331 306.318 105.331 307.284V323H98.0696ZM141.851 323V296.818H149.112V323H141.851ZM145.499 293.443C144.419 293.443 143.493 293.085 142.72 292.369C141.959 291.642 141.578 290.773 141.578 289.761C141.578 288.761 141.959 287.903 142.72 287.188C143.493 286.46 144.419 286.097 145.499 286.097C146.578 286.097 147.499 286.46 148.26 287.188C149.033 287.903 149.419 288.761 149.419 289.761C149.419 290.773 149.033 291.642 148.26 292.369C147.499 293.085 146.578 293.443 145.499 293.443ZM166.861 323.511C164.168 323.511 161.849 322.966 159.906 321.875C157.974 320.773 156.486 319.216 155.44 317.205C154.395 315.182 153.872 312.79 153.872 310.028C153.872 307.335 154.395 304.972 155.44 302.938C156.486 300.903 157.957 299.318 159.855 298.182C161.764 297.045 164.003 296.477 166.571 296.477C168.298 296.477 169.906 296.756 171.395 297.312C172.895 297.858 174.202 298.682 175.315 299.784C176.44 300.886 177.315 302.273 177.94 303.943C178.565 305.602 178.878 307.545 178.878 309.773V311.767H156.77V307.267H172.043C172.043 306.222 171.815 305.295 171.361 304.489C170.906 303.682 170.276 303.051 169.469 302.597C168.673 302.131 167.747 301.898 166.69 301.898C165.588 301.898 164.611 302.153 163.759 302.665C162.918 303.165 162.259 303.841 161.781 304.693C161.304 305.534 161.06 306.472 161.048 307.506V311.784C161.048 313.08 161.287 314.199 161.764 315.142C162.253 316.085 162.94 316.812 163.827 317.324C164.713 317.835 165.764 318.091 166.98 318.091C167.787 318.091 168.526 317.977 169.196 317.75C169.866 317.523 170.44 317.182 170.918 316.727C171.395 316.273 171.759 315.716 172.009 315.057L178.724 315.5C178.384 317.114 177.685 318.523 176.628 319.727C175.582 320.92 174.23 321.852 172.571 322.523C170.923 323.182 169.02 323.511 166.861 323.511ZM205.401 304.284L198.753 304.693C198.639 304.125 198.395 303.614 198.02 303.159C197.645 302.693 197.151 302.324 196.537 302.051C195.935 301.767 195.213 301.625 194.372 301.625C193.247 301.625 192.298 301.864 191.526 302.341C190.753 302.807 190.366 303.432 190.366 304.216C190.366 304.841 190.616 305.369 191.116 305.801C191.616 306.233 192.474 306.58 193.69 306.841L198.429 307.795C200.974 308.318 202.872 309.159 204.122 310.318C205.372 311.477 205.997 313 205.997 314.886C205.997 316.602 205.491 318.108 204.48 319.403C203.48 320.699 202.105 321.71 200.355 322.438C198.616 323.153 196.611 323.511 194.338 323.511C190.872 323.511 188.111 322.79 186.054 321.347C184.009 319.892 182.81 317.915 182.457 315.415L189.599 315.04C189.815 316.097 190.338 316.903 191.168 317.46C191.997 318.006 193.06 318.278 194.355 318.278C195.628 318.278 196.651 318.034 197.423 317.545C198.207 317.045 198.605 316.403 198.616 315.619C198.605 314.96 198.327 314.42 197.781 314C197.236 313.568 196.395 313.239 195.259 313.011L190.724 312.108C188.168 311.597 186.264 310.71 185.014 309.449C183.776 308.187 183.156 306.58 183.156 304.625C183.156 302.943 183.611 301.494 184.52 300.278C185.44 299.062 186.73 298.125 188.389 297.466C190.06 296.807 192.014 296.477 194.253 296.477C197.56 296.477 200.162 297.176 202.06 298.574C203.969 299.972 205.082 301.875 205.401 304.284ZM221.815 323V288.091H244.929V294.176H229.196V302.494H243.395V308.58H229.196V323H221.815ZM259.665 323.511C257.017 323.511 254.727 322.949 252.795 321.824C250.875 320.687 249.392 319.108 248.347 317.085C247.301 315.051 246.778 312.693 246.778 310.011C246.778 307.307 247.301 304.943 248.347 302.92C249.392 300.886 250.875 299.307 252.795 298.182C254.727 297.045 257.017 296.477 259.665 296.477C262.312 296.477 264.597 297.045 266.517 298.182C268.449 299.307 269.938 300.886 270.983 302.92C272.028 304.943 272.551 307.307 272.551 310.011C272.551 312.693 272.028 315.051 270.983 317.085C269.938 319.108 268.449 320.687 266.517 321.824C264.597 322.949 262.312 323.511 259.665 323.511ZM259.699 317.886C260.903 317.886 261.909 317.545 262.716 316.864C263.523 316.17 264.131 315.227 264.54 314.034C264.96 312.841 265.17 311.483 265.17 309.96C265.17 308.438 264.96 307.08 264.54 305.886C264.131 304.693 263.523 303.75 262.716 303.057C261.909 302.364 260.903 302.017 259.699 302.017C258.483 302.017 257.46 302.364 256.631 303.057C255.813 303.75 255.193 304.693 254.773 305.886C254.364 307.08 254.159 308.438 254.159 309.96C254.159 311.483 254.364 312.841 254.773 314.034C255.193 315.227 255.813 316.17 256.631 316.864C257.46 317.545 258.483 317.886 259.699 317.886ZM289.102 323.511C286.455 323.511 284.165 322.949 282.233 321.824C280.313 320.687 278.83 319.108 277.784 317.085C276.739 315.051 276.216 312.693 276.216 310.011C276.216 307.307 276.739 304.943 277.784 302.92C278.83 300.886 280.313 299.307 282.233 298.182C284.165 297.045 286.455 296.477 289.102 296.477C291.75 296.477 294.034 297.045 295.955 298.182C297.886 299.307 299.375 300.886 300.42 302.92C301.466 304.943 301.989 307.307 301.989 310.011C301.989 312.693 301.466 315.051 300.42 317.085C299.375 319.108 297.886 320.687 295.955 321.824C294.034 322.949 291.75 323.511 289.102 323.511ZM289.136 317.886C290.341 317.886 291.347 317.545 292.153 316.864C292.96 316.17 293.568 315.227 293.977 314.034C294.398 312.841 294.608 311.483 294.608 309.96C294.608 308.438 294.398 307.08 293.977 305.886C293.568 304.693 292.96 303.75 292.153 303.057C291.347 302.364 290.341 302.017 289.136 302.017C287.92 302.017 286.898 302.364 286.068 303.057C285.25 303.75 284.631 304.693 284.21 305.886C283.801 307.08 283.597 308.438 283.597 309.96C283.597 311.483 283.801 312.841 284.21 314.034C284.631 315.227 285.25 316.17 286.068 316.864C286.898 317.545 287.92 317.886 289.136 317.886ZM316.358 323.426C314.369 323.426 312.568 322.915 310.955 321.892C309.352 320.858 308.08 319.341 307.136 317.341C306.205 315.33 305.739 312.864 305.739 309.943C305.739 306.943 306.222 304.449 307.188 302.46C308.153 300.46 309.438 298.966 311.04 297.977C312.653 296.977 314.42 296.477 316.341 296.477C317.807 296.477 319.028 296.727 320.006 297.227C320.994 297.716 321.79 298.33 322.392 299.068C323.006 299.795 323.472 300.511 323.79 301.216H324.011V288.091H331.256V323H324.097V318.807H323.79C323.449 319.534 322.966 320.256 322.341 320.972C321.727 321.676 320.926 322.261 319.938 322.727C318.96 323.193 317.767 323.426 316.358 323.426ZM318.659 317.648C319.83 317.648 320.818 317.33 321.625 316.693C322.443 316.045 323.068 315.142 323.5 313.983C323.943 312.824 324.165 311.466 324.165 309.909C324.165 308.352 323.949 307 323.517 305.852C323.085 304.705 322.46 303.818 321.642 303.193C320.824 302.568 319.83 302.256 318.659 302.256C317.466 302.256 316.46 302.58 315.642 303.227C314.824 303.875 314.205 304.773 313.784 305.92C313.364 307.068 313.153 308.398 313.153 309.909C313.153 311.432 313.364 312.778 313.784 313.949C314.216 315.108 314.835 316.017 315.642 316.676C316.46 317.324 317.466 317.648 318.659 317.648ZM337.226 323V296.818H344.487V323H337.226ZM340.874 293.443C339.794 293.443 338.868 293.085 338.095 292.369C337.334 291.642 336.953 290.773 336.953 289.761C336.953 288.761 337.334 287.903 338.095 287.188C338.868 286.46 339.794 286.097 340.874 286.097C341.953 286.097 342.874 286.46 343.635 287.188C344.408 287.903 344.794 288.761 344.794 289.761C344.794 290.773 344.408 291.642 343.635 292.369C342.874 293.085 341.953 293.443 340.874 293.443ZM362.236 323.511C359.543 323.511 357.224 322.966 355.281 321.875C353.349 320.773 351.861 319.216 350.815 317.205C349.77 315.182 349.247 312.79 349.247 310.028C349.247 307.335 349.77 304.972 350.815 302.938C351.861 300.903 353.332 299.318 355.23 298.182C357.139 297.045 359.378 296.477 361.946 296.477C363.673 296.477 365.281 296.756 366.77 297.312C368.27 297.858 369.577 298.682 370.69 299.784C371.815 300.886 372.69 302.273 373.315 303.943C373.94 305.602 374.253 307.545 374.253 309.773V311.767H352.145V307.267H367.418C367.418 306.222 367.19 305.295 366.736 304.489C366.281 303.682 365.651 303.051 364.844 302.597C364.048 302.131 363.122 301.898 362.065 301.898C360.963 301.898 359.986 302.153 359.134 302.665C358.293 303.165 357.634 303.841 357.156 304.693C356.679 305.534 356.435 306.472 356.423 307.506V311.784C356.423 313.08 356.662 314.199 357.139 315.142C357.628 316.085 358.315 316.812 359.202 317.324C360.088 317.835 361.139 318.091 362.355 318.091C363.162 318.091 363.901 317.977 364.571 317.75C365.241 317.523 365.815 317.182 366.293 316.727C366.77 316.273 367.134 315.716 367.384 315.057L374.099 315.5C373.759 317.114 373.06 318.523 372.003 319.727C370.957 320.92 369.605 321.852 367.946 322.523C366.298 323.182 364.395 323.511 362.236 323.511ZM400.776 304.284L394.128 304.693C394.014 304.125 393.77 303.614 393.395 303.159C393.02 302.693 392.526 302.324 391.912 302.051C391.31 301.767 390.588 301.625 389.747 301.625C388.622 301.625 387.673 301.864 386.901 302.341C386.128 302.807 385.741 303.432 385.741 304.216C385.741 304.841 385.991 305.369 386.491 305.801C386.991 306.233 387.849 306.58 389.065 306.841L393.804 307.795C396.349 308.318 398.247 309.159 399.497 310.318C400.747 311.477 401.372 313 401.372 314.886C401.372 316.602 400.866 318.108 399.855 319.403C398.855 320.699 397.48 321.71 395.73 322.438C393.991 323.153 391.986 323.511 389.713 323.511C386.247 323.511 383.486 322.79 381.429 321.347C379.384 319.892 378.185 317.915 377.832 315.415L384.974 315.04C385.19 316.097 385.713 316.903 386.543 317.46C387.372 318.006 388.435 318.278 389.73 318.278C391.003 318.278 392.026 318.034 392.798 317.545C393.582 317.045 393.98 316.403 393.991 315.619C393.98 314.96 393.702 314.42 393.156 314C392.611 313.568 391.77 313.239 390.634 313.011L386.099 312.108C383.543 311.597 381.639 310.71 380.389 309.449C379.151 308.187 378.531 306.58 378.531 304.625C378.531 302.943 378.986 301.494 379.895 300.278C380.815 299.062 382.105 298.125 383.764 297.466C385.435 296.807 387.389 296.477 389.628 296.477C392.935 296.477 395.537 297.176 397.435 298.574C399.344 299.972 400.457 301.875 400.776 304.284Z" fill="#309F48"/>
</g>
<defs>
<filter id="filter0_d_2_2359" x="88.5555" y="0" width="286.171" height="250" filterUnits="userSpaceOnUse" color-interpolation-filters="sRGB">
<feFlood flood-opacity="0" result="BackgroundImageFix"/>
<feColorMatrix in="SourceAlpha" type="matrix" values="0 0 0 0 0 0 0 0 0 0 0 0 0 0 0 0 0 0 127 0" result="hardAlpha"/>
<feOffset dy="4"/>
<feGaussianBlur stdDeviation="2"/>
<feComposite in2="hardAlpha" operator="out"/>
<feColorMatrix type="matrix" values="0 0 0 0 0 0 0 0 0 0 0 0 0 0 0 0 0 0 0.25 0"/>
<feBlend mode="normal" in2="BackgroundImageFix" result="effect1_dropShadow_2_2359"/>
<feBlend mode="normal" in="SourceGraphic" in2="effect1_dropShadow_2_2359" result="shape"/>
</filter>
<filter id="filter1_d_2_2359" x="0.0341187" y="286.097" width="405.338" height="45.4148" filterUnits="userSpaceOnUse" color-interpolation-filters="sRGB">
<feFlood flood-opacity="0" result="BackgroundImageFix"/>
<feColorMatrix in="SourceAlpha" type="matrix" values="0 0 0 0 0 0 0 0 0 0 0 0 0 0 0 0 0 0 127 0" result="hardAlpha"/>
<feOffset dy="4"/>
<feGaussianBlur stdDeviation="2"/>
<feComposite in2="hardAlpha" operator="out"/>
<feColorMatrix type="matrix" values="0 0 0 0 0 0 0 0 0 0 0 0 0 0 0 0 0 0 0.25 0"/>
<feBlend mode="normal" in2="BackgroundImageFix" result="effect1_dropShadow_2_2359"/>
<feBlend mode="normal" in="SourceGraphic" in2="effect1_dropShadow_2_2359" result="shape"/>
</filter>
<linearGradient id="paint0_linear_2_2359" x1="92.5555" y1="123.715" x2="363.997" y2="123.715" gradientUnits="userSpaceOnUse">
<stop stop-color="#8DBB4F"/>
<stop offset="0.5" stop-color="#57A745"/>
<stop offset="1" stop-color="#309F48"/>
</linearGradient>
<linearGradient id="paint1_linear_2_2359" x1="97.0414" y1="158.911" x2="370.726" y2="158.911" gradientUnits="userSpaceOnUse">
<stop stop-color="#8DBB4F"/>
<stop offset="0.5" stop-color="#57A745"/>
<stop offset="1" stop-color="#309F48"/>
</linearGradient>
<clipPath id="clip0_2_2359">
<rect width="278.17" height="242" fill="white" transform="translate(92.5555)"/>
</clipPath>
</defs>
</svg>
